<?xml version="1.0" encoding="utf-8"?>
<!-- Generator: Adobe Illustrator 18.1.1, SVG Export Plug-In . SVG Version: 6.00 Build 0)  -->
<svg version="1.1" id="Layer_1" xmlns="http://www.w3.org/2000/svg" xmlns:xlink="http://www.w3.org/1999/xlink" x="0px" y="0px"
	 viewBox="0 0 33 33" enable-background="new 0 0 33 33" xml:space="preserve">
<g id="saltStack_x5F_icon_x5F_thicker_6_">
	<g>
		<path d="M14.1,0.4c0.5-0.3,0.9-0.3,1.4,0c1.4,0.8,2.8,1.6,4.2,2.4c0.1,0.1,0.4,0,0.5,0c1.4-0.8,2.7-1.6,4.1-2.4
			c0.5-0.3,0.8-0.3,1.3,0c2.1,1.2,4.2,2.4,6.3,3.6c0.4,0.3,0.6,0.6,0.6,1.1c0,2.4,0,4.9,0,7.3c0,0.5-0.2,0.8-0.6,1
			c-1.2,0.7-2.5,1.4-3.7,2.1c0.9,0.7,0.9,0.7,0.9,1.9c0,2.3,0,4.5,0,6.8c0,0.4-0.2,0.7-0.5,0.9c-4.3,2.5-8.6,4.9-12.9,7.5
			c-0.6,0.3-1,0.4-1.7,0c-4.3-2.5-8.6-5-12.9-7.5c-0.4-0.2-0.6-0.5-0.6-1c0-5.1,0-10.1,0-15.2c0-0.4,0.2-0.7,0.6-1L14.1,0.4z
			 M14.1,17.4c0-0.3-0.1-0.5-0.3-0.6L2,10l0,13.5c0,0.3,0.1,0.5,0.4,0.7l11.7,6.7L14.1,17.4z M27.3,24.1c0.3-0.2,0.4-0.3,0.4-0.6
			l0-5.7L22.2,21c-0.8,0.4-1.3,0.2-1.3-0.7c0-1.9,0-3.9,0-5.8c0-0.1,0-0.3,0-0.5l-5,2.8c-0.3,0.1-0.3,0.3-0.3,0.6l0,13.5L27.3,24.1z
			 M14.5,15.5c0.2,0.1,0.4,0.1,0.6,0c0.9-0.6,1.9-1.1,2.9-1.7c0.7-0.4,1.4-0.8,2.1-1.2c-0.3-0.2-0.5-0.3-0.7-0.4
			c-1.6-0.9-3.2-1.9-4.8-2.8c-0.6-0.4-0.6-1,0-1.4c0.8-0.5,1.7-1,2.5-1.5c0.3-0.1,0.4-0.3,0.4-0.6c0-0.1,0-0.3,0-0.4
			c-0.1-0.7,0-1.3,0.8-1.6c0,0,0-0.1,0.1-0.1c-1.1-0.6-2.1-1.2-3.2-1.9c-0.3-0.2-0.5-0.1-0.7,0L2.8,8.7L14.5,15.5z M30.2,4.8
			c-0.1-0.1-0.1-0.1-0.2-0.1c-1.6-0.9-3.3-1.9-4.9-2.8c-0.1-0.1-0.4,0-0.5,0c-1.5,0.8-2.9,1.7-4.3,2.5c-0.2,0.1-0.4,0.2-0.7,0.4
			c0.1,0.1,0.1,0.1,0.2,0.1c1.6,0.9,3.3,1.9,4.9,2.8c0.1,0.1,0.4,0,0.5,0c0.7-0.4,1.4-0.8,2.1-1.2C28.3,5.9,29.2,5.4,30.2,4.8z
			 M30.8,12.3c0.1-0.1,0.2-0.3,0.2-0.5c0-1.8,0-3.5,0-5.3c0-0.1,0-0.2,0-0.3c-0.1,0-0.1,0-0.1,0C29.2,7.1,27.6,8,26,9
			c-0.1,0.1-0.2,0.3-0.2,0.5l0,5.7L30.8,12.3z M18.9,6.1c0,1.3,0,2.5,0,3.8c0,0.3,0.1,0.4,0.3,0.6c0.9,0.5,1.7,1,2.6,1.5
			c0.4,0.2,0.5,0.5,0.5,0.9c0,0.4,0,0.7,0,1.1c0,0.1,0,0.3,0.1,0.3c0.6,0.3,1.1,0.7,1.7,1c0-0.1,0-0.2,0-0.3c0-1.9,0-3.7,0-5.6
			c0-0.1-0.1-0.3-0.3-0.4L18.9,6.1z M22.4,15.9c0,1.1,0,2.1,0,3.2c1.5-0.9,3-1.7,4.4-2.6c0,0,0-0.1-0.1-0.1c-0.1,0-0.2,0.1-0.3,0.1
			c-0.3,0.2-0.6,0.3-0.9,0.5c-0.4,0.2-0.7,0.3-1.1,0C23.8,16.7,23.1,16.3,22.4,15.9z M16.3,8.7c0.4,0.2,0.7,0.4,1.1,0.6
			c0-0.5,0-0.8,0-1.3C17,8.3,16.7,8.5,16.3,8.7z"/>
	</g>
</g>
</svg>
